<svg width="32" height="30" viewBox="0 0 32 30" fill="none" xmlns="http://www.w3.org/2000/svg">
<g clip-path="url(#clip0_23_418)">
<path d="M4.40692 7.16667V21.8542H18.4046C18.1062 21.0341 17.9706 20.2141 17.9706 19.4062H9.83239C9.83239 18.0599 8.62522 16.9583 7.11966 16.9583V12.0625C8.62522 12.0625 9.83239 10.9732 9.83239 9.61458H23.3961C23.3961 10.9732 24.6168 12.0625 26.1088 12.0625V12.1359C27.0176 12.1359 27.9263 12.2828 28.8215 12.5521V7.16667H4.40692ZM16.6142 10.8385C14.3084 10.8753 12.5451 12.4297 12.5451 14.5104C12.5451 16.5911 14.3084 18.1089 16.6142 18.1823C17.1296 18.1823 17.6586 18.0844 18.1605 17.9008C18.5267 16.5544 19.1371 15.2815 20.6426 14.0331C20.4799 12.4052 18.7709 10.8018 16.6142 10.8385ZM26.1088 13.2865L29.1606 16.0404L26.1088 18.7943V16.9583C23.5995 16.9583 21.9583 19.3573 23.0705 21.3891L21.5921 22.7232C19.2049 19.4674 21.782 15.1224 26.1088 15.1224V13.2865ZM26.1088 26.75L23.057 23.9961L26.1088 21.2422V23.0781C28.6181 23.0781 30.2593 20.6792 29.1471 18.6474L30.6255 17.3133C33.0127 20.569 30.4356 24.9141 26.1088 24.9141V26.75Z" fill="#0A90D5" />
</g>
<defs>
<clipPath id="clip0_23_418">
<rect width="31.3043" height="29.375" fill="white" transform="translate(0.233032 0.3125)"/>
</clipPath>
</defs>
</svg>
