<svg width="19" height="20" viewBox="0 0 19 20" fill="none" xmlns="http://www.w3.org/2000/svg">
<path d="M13.2452 2.54854V17.236C13.2452 18.8712 14.4348 19.7917 15.7391 19.7917C16.9287 19.7917 18.233 19.0181 18.233 17.236V2.65625C18.233 1.14833 17.0435 0.208333 15.7391 0.208333C14.4348 0.208333 13.2452 1.24625 13.2452 2.54854ZM6.72346 10V17.236C6.72346 18.881 7.9339 19.7917 9.21737 19.7917C10.4069 19.7917 11.7113 19.0181 11.7113 17.236V10.1077C11.7113 8.59979 10.5217 7.65979 9.21737 7.65979C7.91303 7.65979 6.72346 8.69771 6.72346 10ZM2.69563 15.121C4.07303 15.121 5.18955 16.1688 5.18955 17.4515C5.18955 18.744 4.07303 19.7917 2.69563 19.7917C1.31824 19.7917 0.201721 18.744 0.201721 17.4515C0.201721 16.1688 1.31824 15.121 2.69563 15.121Z" fill="#0A90D5" />
</svg>
