<svg width="45" height="45" viewBox="0 0 45 45" fill="none" xmlns="http://www.w3.org/2000/svg">
<path d="M0 22.5C0 10.0736 10.0736 0 22.5 0C34.9264 0 45 10.0736 45 22.5C45 34.9264 34.9264 45 22.5 45C10.0736 45 0 34.9264 0 22.5Z" fill="#0077FF"/>
<path d="M5 22.5C5 12.835 12.835 5 22.5 5C32.165 5 40 12.835 40 22.5C40 32.165 32.165 40 22.5 40C12.835 40 5 32.165 5 22.5Z" fill="white"/>
<path fill-rule="evenodd" clip-rule="evenodd" d="M34.5 22.7841C34.5 21.8977 34.4205 21.0455 34.2728 20.2273H22.5V25.0625H29.2273C28.9375 26.625 28.0568 27.9489 26.733 28.8353V31.9716H30.7728C33.1364 29.7955 34.5 26.5909 34.5 22.7841Z" fill="#4285F4"/>
<path fill-rule="evenodd" clip-rule="evenodd" d="M22.4995 35C25.8745 35 28.7046 33.8807 30.7728 31.9716L26.733 28.8353C25.6136 29.5853 24.1813 30.0284 22.4995 30.0284C19.2438 30.0284 16.4881 27.8295 15.5052 24.875H11.329V28.1136C13.3859 32.1988 17.6131 35 22.4995 35Z" fill="#34A853"/>
<path fill-rule="evenodd" clip-rule="evenodd" d="M15.5052 24.875C15.2552 24.125 15.1136 23.3238 15.1136 22.4999C15.1136 21.6761 15.2557 20.8749 15.5057 20.1249V16.8863H11.3295C10.483 18.5738 10 20.4829 10 22.4999C10 24.517 10.4824 26.4261 11.329 28.1136L15.5052 24.875Z" fill="#FBBC05"/>
<path fill-rule="evenodd" clip-rule="evenodd" d="M22.4995 14.9716C24.3348 14.9716 25.9825 15.6023 27.2779 16.8409L30.8632 13.2557C28.6984 11.2386 25.8688 10 22.4995 10C17.6131 10 13.3864 12.8011 11.3295 16.8863L15.5057 20.1249C16.4887 17.1704 19.2438 14.9716 22.4995 14.9716Z" fill="#EA4335"/>
</svg>
