<svg width="45" height="45" viewBox="0 0 45 45" fill="none" xmlns="http://www.w3.org/2000/svg">
<rect width="45" height="45" rx="22.5" fill="#0077FF"/>
<path d="M22.8401 29C14.2712 29 9.3837 23.7447 9.18005 15H13.4723C13.6133 21.4184 16.7777 24.1371 19.2841 24.6977V15H23.3257V20.5355C25.8008 20.2973 28.4013 17.7748 29.2785 15H33.3201C32.9896 16.4391 32.3306 17.8017 31.3845 19.0025C30.4384 20.2033 29.2255 21.2166 27.8217 21.979C29.3887 22.6756 30.7728 23.6615 31.8826 24.8717C32.9924 26.082 33.8027 27.489 34.2601 29H29.8111C29.4006 27.6876 28.5662 26.5128 27.4125 25.6228C26.2588 24.7328 24.8372 24.1673 23.3257 23.997V29H22.8401Z" fill="white"/>
</svg>
