<svg width="19" height="19" viewBox="0 0 19 19" fill="none" xmlns="http://www.w3.org/2000/svg">
<path d="M8.44444 12.6667H14.7778V14.7778H8.44444V12.6667ZM6.33333 4.22222H4.22222V6.33333H6.33333V4.22222ZM8.44444 10.5556H14.7778V8.44444H8.44444V10.5556ZM8.44444 6.33333H14.7778V4.22222H8.44444V6.33333ZM6.33333 8.44444H4.22222V10.5556H6.33333V8.44444ZM19 2.11111V16.8889C19 18.05 18.05 19 16.8889 19H2.11111C0.95 19 0 18.05 0 16.8889V2.11111C0 0.95 0.95 0 2.11111 0H16.8889C18.05 0 19 0.95 19 2.11111ZM16.8889 2.11111H2.11111V16.8889H16.8889V2.11111ZM6.33333 12.6667H4.22222V14.7778H6.33333V12.6667Z" fill="white"/>
</svg>
