<svg width="25" height="25" viewBox="0 0 25 25" fill="none" xmlns="http://www.w3.org/2000/svg">
<path d="M3.125 6.25H21.875V18.75H3.125V6.25ZM12.5 9.375C13.3288 9.375 14.1237 9.70424 14.7097 10.2903C15.2958 10.8763 15.625 11.6712 15.625 12.5C15.625 13.3288 15.2958 14.1237 14.7097 14.7097C14.1237 15.2958 13.3288 15.625 12.5 15.625C11.6712 15.625 10.8763 15.2958 10.2903 14.7097C9.70424 14.1237 9.375 13.3288 9.375 12.5C9.375 11.6712 9.70424 10.8763 10.2903 10.2903C10.8763 9.70424 11.6712 9.375 12.5 9.375ZM7.29167 8.33333C7.29167 8.88587 7.07217 9.41577 6.68147 9.80647C6.29077 10.1972 5.76087 10.4167 5.20833 10.4167V14.5833C5.76087 14.5833 6.29077 14.8028 6.68147 15.1935C7.07217 15.5842 7.29167 16.1141 7.29167 16.6667H17.7083C17.7083 16.1141 17.9278 15.5842 18.3185 15.1935C18.7092 14.8028 19.2391 14.5833 19.7917 14.5833V10.4167C19.2391 10.4167 18.7092 10.1972 18.3185 9.80647C17.9278 9.41577 17.7083 8.88587 17.7083 8.33333H7.29167Z" fill="#FCFCFC"/>
</svg>
